<svg xmlns="http://www.w3.org/2000/svg" viewBox="0 0 112 112" role="img" aria-labelledby="title desc">
  <title id="title">Syntax2DrawIO icon</title>
  <desc id="desc">Diagram nodes connected by arrows on a blue gradient background.</desc>
  <defs>
    <linearGradient id="bg" x1="16" y1="12" x2="96" y2="100" gradientUnits="userSpaceOnUse">
      <stop stop-color="#2563EB"/>
      <stop offset="1" stop-color="#14B8A6"/>
    </linearGradient>
    <filter id="shadow" x="-20%" y="-20%" width="140%" height="140%">
      <feDropShadow dx="0" dy="5" stdDeviation="6" flood-color="#0F172A" flood-opacity=".2"/>
    </filter>
  </defs>
  <rect width="112" height="112" rx="26" fill="url(#bg)"/>
  <g filter="url(#shadow)">
    <rect x="19" y="27" width="32" height="22" rx="7" fill="#F8FAFC" opacity=".96"/>
    <rect x="61" y="27" width="32" height="22" rx="7" fill="#F8FAFC" opacity=".96"/>
    <rect x="40" y="65" width="32" height="22" rx="7" fill="#F8FAFC" opacity=".96"/>
  </g>
  <path d="M51 38h10M77 49v7c0 4.4-3.6 8-8 8H56M35 49v7c0 4.4 3.6 8 8 8h13" fill="none" stroke="#DBEAFE" stroke-width="5" stroke-linecap="round" stroke-linejoin="round"/>
  <path d="M56 64l-6-5m6 5l-6 5" fill="none" stroke="#DBEAFE" stroke-width="5" stroke-linecap="round" stroke-linejoin="round"/>
  <path d="M30 38h10M72 38h10M51 76h10" fill="none" stroke="#2563EB" stroke-width="4" stroke-linecap="round"/>
</svg>
